<!DOCTYPE svg PUBLIC "-//W3C//DTD SVG 1.1//EN" "http://www.w3.org/Graphics/SVG/1.1/DTD/svg11.dtd">
<!-- Uploaded to: SVG Repo, www.svgrepo.com, Transformed by: SVG Repo Mixer Tools -->
<svg fill="#ec1b24" height="256px" width="256px" version="1.1" id="Capa_1" xmlns="http://www.w3.org/2000/svg" xmlns:xlink="http://www.w3.org/1999/xlink" viewBox="-37.98 -37.98 455.76 455.76" xml:space="preserve" stroke="#ec1b24" stroke-width="0.00379804">
<g id="SVGRepo_bgCarrier" stroke-width="0" transform="translate(0,0), scale(1)">
<rect x="-37.98" y="-37.98" width="455.76" height="455.76" rx="227.88" fill="#00adee" strokewidth="0"/>
</g>
<g id="SVGRepo_tracerCarrier" stroke-linecap="round" stroke-linejoin="round" stroke="#030303" stroke-width="7.596079999999999"> <g> <path d="M335.841,88.734c-26.001-25.022-72.534-54.852-146.563-54.852c-1.543,0-3.118,0.014-4.683,0.04 C111.691,35.148,65.51,67.091,39.606,93.673C11.513,122.501,0.362,152.01,0.362,152.01C0.004,152.974,0,155.031,0,155.031 c2.25,19.122,21.471,36.919,57.129,52.896c25.971,11.638,53.253,18.847,63.486,20.469l80.849,63.541l26.956,50.542 c1.17,2.193,3.417,3.442,5.741,3.442c1.032,0,2.079-0.246,3.053-0.766c3.167-1.689,4.366-5.627,2.677-8.794l-25.292-47.424 l62.023-59.921c19.496,6.778,37.623,12.884,48.488,12.883c2.599-0.001,4.785-0.33,6.682-1.008 c18.522-6.615,48.014-43.152,48.014-73.971C379.804,149.529,364.396,116.216,335.841,88.734z M48.917,102.745 c15.39-15.793,33.205-28.468,52.95-37.673c24.743-11.535,52.651-17.643,82.948-18.151c1.492-0.025,2.993-0.038,4.464-0.038 c69.698,0,113.27,27.854,137.548,51.219c12.05,11.597,28.416,32.737,35.917,51.32H15.721 C20.47,139.679,30.861,121.273,48.917,102.745z M206.115,279.057l-65.278-51.302c12.15-1.575,27.277-4.606,42.063-7.571 c14.579-2.924,28.35-5.686,36.952-6.546c0.495-0.05,1.051-0.074,1.654-0.074c8.839,0,25.146,5.135,41.346,10.681L206.115,279.057z M327.418,228.65c-0.164,0.059-0.815,0.25-2.311,0.25c-9.297,0.001-28.781-6.785-47.624-13.347 c-22.134-7.709-43.04-14.989-55.978-14.989c-1.033,0-2.024,0.047-2.948,0.139c-9.238,0.924-23.313,3.747-38.214,6.735 c-19.686,3.947-41.999,8.422-53.496,8.422c-1.335,0-2.474-0.061-3.383-0.183c-18.834-2.511-91.35-24.739-107.49-53.256h350.482 c0.221,1.55,0.349,3.057,0.349,4.5C366.804,192.521,340.387,224.018,327.418,228.65z"/> <path d="M70.86,114.771c1.411,0,2.832-0.457,4.025-1.399c25.312-19.997,52.797-32.924,81.692-38.422 c23.136-4.402,47.279-4.094,71.756,0.919c41.844,8.568,70.591,28.181,71.108,28.537c2.948,2.053,6.998,1.325,9.048-1.621 c2.051-2.947,1.325-6.998-1.622-9.049c-1.242-0.864-30.928-21.278-75.419-30.498c-26.208-5.433-52.11-5.809-76.985-1.119 c-31.089,5.86-60.575,19.672-87.638,41.052c-2.817,2.226-3.296,6.313-1.071,9.13C67.038,113.925,68.939,114.771,70.86,114.771z"/> </g> </g>
<g id="SVGRepo_iconCarrier"> <g> <path d="M335.841,88.734c-26.001-25.022-72.534-54.852-146.563-54.852c-1.543,0-3.118,0.014-4.683,0.04 C111.691,35.148,65.51,67.091,39.606,93.673C11.513,122.501,0.362,152.01,0.362,152.01C0.004,152.974,0,155.031,0,155.031 c2.25,19.122,21.471,36.919,57.129,52.896c25.971,11.638,53.253,18.847,63.486,20.469l80.849,63.541l26.956,50.542 c1.17,2.193,3.417,3.442,5.741,3.442c1.032,0,2.079-0.246,3.053-0.766c3.167-1.689,4.366-5.627,2.677-8.794l-25.292-47.424 l62.023-59.921c19.496,6.778,37.623,12.884,48.488,12.883c2.599-0.001,4.785-0.33,6.682-1.008 c18.522-6.615,48.014-43.152,48.014-73.971C379.804,149.529,364.396,116.216,335.841,88.734z M48.917,102.745 c15.39-15.793,33.205-28.468,52.95-37.673c24.743-11.535,52.651-17.643,82.948-18.151c1.492-0.025,2.993-0.038,4.464-0.038 c69.698,0,113.27,27.854,137.548,51.219c12.05,11.597,28.416,32.737,35.917,51.32H15.721 C20.47,139.679,30.861,121.273,48.917,102.745z M206.115,279.057l-65.278-51.302c12.15-1.575,27.277-4.606,42.063-7.571 c14.579-2.924,28.35-5.686,36.952-6.546c0.495-0.05,1.051-0.074,1.654-0.074c8.839,0,25.146,5.135,41.346,10.681L206.115,279.057z M327.418,228.65c-0.164,0.059-0.815,0.25-2.311,0.25c-9.297,0.001-28.781-6.785-47.624-13.347 c-22.134-7.709-43.04-14.989-55.978-14.989c-1.033,0-2.024,0.047-2.948,0.139c-9.238,0.924-23.313,3.747-38.214,6.735 c-19.686,3.947-41.999,8.422-53.496,8.422c-1.335,0-2.474-0.061-3.383-0.183c-18.834-2.511-91.35-24.739-107.49-53.256h350.482 c0.221,1.55,0.349,3.057,0.349,4.5C366.804,192.521,340.387,224.018,327.418,228.65z"/> <path d="M70.86,114.771c1.411,0,2.832-0.457,4.025-1.399c25.312-19.997,52.797-32.924,81.692-38.422 c23.136-4.402,47.279-4.094,71.756,0.919c41.844,8.568,70.591,28.181,71.108,28.537c2.948,2.053,6.998,1.325,9.048-1.621 c2.051-2.947,1.325-6.998-1.622-9.049c-1.242-0.864-30.928-21.278-75.419-30.498c-26.208-5.433-52.11-5.809-76.985-1.119 c-31.089,5.86-60.575,19.672-87.638,41.052c-2.817,2.226-3.296,6.313-1.071,9.13C67.038,113.925,68.939,114.771,70.86,114.771z"/> </g> </g>
</svg>